<svg width="34" height="34" viewBox="0 0 34 34" fill="none" xmlns="http://www.w3.org/2000/svg">
<path d="M12 13.6667L17.4302 17.7393C18.1277 18.2623 19.1103 18.1595 19.6845 17.5035L30.3333 5.33334" stroke="white" stroke-width="2.88686" stroke-linecap="round"/>
<path d="M32 17C32 20.1342 31.0183 23.1895 29.1927 25.7372C27.3672 28.2848 24.7893 30.1965 21.8217 31.204C18.8538 32.2113 15.645 32.2638 12.6457 31.3542C9.64653 30.4443 7.00765 28.6178 5.0997 26.1315C3.19175 23.645 2.11059 20.6233 2.00804 17.4908C1.90549 14.3583 2.78672 11.2724 4.52795 8.66645C6.2692 6.0605 8.78298 4.06542 11.7163 2.96142C14.6495 1.8574 17.855 1.69994 20.8823 2.51112" stroke="white" stroke-width="2.88686" stroke-linecap="round"/>
</svg>
