<svg width="30" height="31" viewBox="0 0 30 31" fill="none" xmlns="http://www.w3.org/2000/svg">
<path d="M15.1153 4.91461C15.2833 4.90451 15.4516 4.93017 15.609 4.9899C15.7664 5.04963 15.9094 5.14207 16.0284 5.26111C16.1475 5.38015 16.2399 5.52309 16.2996 5.68049C16.3594 5.83789 16.385 6.00617 16.3749 6.17422V14.9915C16.3749 15.3255 16.2422 15.6459 16.006 15.8821C15.7698 16.1184 15.4494 16.2511 15.1153 16.2511C14.7812 16.2511 14.4608 16.1184 14.2246 15.8821C13.9884 15.6459 13.8557 15.3255 13.8557 14.9915V6.17422C13.8456 6.00617 13.8713 5.83789 13.931 5.68049C13.9907 5.52309 14.0831 5.38015 14.2022 5.26111C14.3212 5.14207 14.4642 5.04963 14.6216 4.9899C14.779 4.93017 14.9473 4.90451 15.1153 4.91461ZM17.0047 1.26175C17.0148 1.0937 16.9892 0.925424 16.9294 0.768023C16.8697 0.610623 16.7773 0.467682 16.6582 0.348639C16.5392 0.229597 16.3962 0.13716 16.2388 0.0774316C16.0814 0.0177036 15.9132 -0.00795677 15.7451 0.00214483H15.1153C13.1357 -0.0168445 11.1719 0.356976 9.33769 1.10197C7.50347 1.84697 5.83523 2.94835 4.4295 4.34236C3.02377 5.73638 1.90847 7.39535 1.14815 9.22326C0.387829 11.0512 -0.00241171 13.0117 1.12136e-05 14.9915C0.0116424 18.9967 1.60788 22.8346 4.44003 25.6667C7.27218 28.4989 11.1101 30.0951 15.1153 30.1068H15.7451C16.0792 30.1068 16.3996 29.9741 16.6358 29.7378C16.872 29.5016 17.0047 29.1812 17.0047 28.8472C16.9826 28.5204 16.8428 28.2127 16.6112 27.9811C16.3796 27.7495 16.0719 27.6097 15.7451 27.5875H15.1153C11.7746 27.5875 8.57075 26.2605 6.20853 23.8982C3.84631 21.536 2.51923 18.3322 2.51923 14.9915C2.51923 11.6508 3.84631 8.44693 6.20853 6.0847C8.57075 3.72248 11.7746 2.3954 15.1153 2.3954H15.7451C16.0595 2.40076 16.3643 2.28679 16.598 2.07643C16.8317 1.86608 16.977 1.57498 17.0047 1.26175ZM25.3181 7.55979C25.4284 7.72351 25.5791 7.85594 25.7557 7.94423C25.9323 8.03251 26.1287 8.07364 26.3258 8.06363C26.5935 8.0375 26.8518 7.95139 27.0816 7.81171C27.3297 7.59795 27.492 7.30149 27.5383 6.97724C27.5847 6.653 27.5119 6.32296 27.3335 6.04826C27.1093 5.65726 26.8096 5.31472 26.4518 5.04057C26.3443 4.91651 26.2134 4.81485 26.0665 4.74137C25.9197 4.6679 25.7599 4.62407 25.5961 4.61237C25.2654 4.58875 24.9389 4.69747 24.6883 4.91461C24.4378 5.13176 24.2837 5.43954 24.2601 5.77025C24.2365 6.10096 24.3452 6.42751 24.5624 6.67806C24.8143 6.92999 25.0662 7.30787 25.3181 7.55979ZM27.2075 11.5905C27.3335 11.9684 27.3335 12.3463 27.4595 12.7242C27.5122 13.016 27.6688 13.2789 27.9004 13.4641C28.1319 13.6494 28.4228 13.7445 28.7191 13.7319H28.971C29.3023 13.6599 29.5926 13.462 29.7806 13.18C29.9687 12.8979 30.0397 12.5538 29.9787 12.2203C29.8527 11.7165 29.8527 11.3386 29.7268 10.8348C29.6308 10.5254 29.4223 10.2632 29.1425 10.0999C28.8626 9.93671 28.5318 9.8843 28.2152 9.95304C27.8875 10.0728 27.6098 10.2996 27.4269 10.5967C27.2441 10.8939 27.1668 11.244 27.2075 11.5905ZM28.971 16.2511C28.6399 16.2088 28.3047 16.2875 28.027 16.4726C27.7493 16.6578 27.5478 16.9369 27.4595 17.2588C27.3335 17.6367 27.3335 18.0145 27.2075 18.3924C27.1388 18.709 27.1912 19.0398 27.3544 19.3197C27.5177 19.5995 27.7799 19.808 28.0893 19.9039H28.4671C28.7368 19.8831 28.9959 19.7903 29.2174 19.6352C29.439 19.4801 29.6149 19.2684 29.7268 19.0222C29.8709 18.6166 29.9557 18.1924 29.9787 17.7626C30.0397 17.4292 29.9687 17.085 29.7806 16.803C29.5926 16.5209 29.3023 16.323 28.971 16.2511ZM25.3181 22.4232C25.0662 22.6751 24.8143 23.053 24.5624 23.3049C24.4516 23.4274 24.3667 23.571 24.3128 23.7272C24.259 23.8833 24.2373 24.0487 24.2491 24.2135C24.2608 24.3782 24.3058 24.5389 24.3813 24.6858C24.4568 24.8327 24.5612 24.9628 24.6883 25.0683C24.8072 25.1735 24.9481 25.2507 25.1006 25.2943C25.2532 25.3378 25.4136 25.3467 25.57 25.3203C25.9423 25.3302 26.3038 25.1947 26.5777 24.9424C26.8397 24.5798 27.1349 24.2425 27.4595 23.9347C27.6378 23.66 27.7106 23.3299 27.6643 23.0057C27.618 22.6815 27.4557 22.385 27.2075 22.1712C27.0732 22.0492 26.9138 21.958 26.7405 21.9039C26.5672 21.8498 26.3842 21.8343 26.2043 21.8582C26.0244 21.8822 25.8519 21.9452 25.6988 22.0428C25.5457 22.1404 25.4158 22.2702 25.3181 22.4232ZM21.1614 26.076C20.7835 26.202 20.5316 26.4539 20.1537 26.5799C19.8547 26.7153 19.621 26.9631 19.5031 27.2695C19.3853 27.5759 19.3927 27.9164 19.5239 28.2174C19.6152 28.4426 19.7721 28.6351 19.9743 28.7699C20.1765 28.9047 20.4146 28.9755 20.6576 28.9731C20.8351 28.992 21.0136 28.9473 21.1614 28.8472C21.605 28.6884 22.0279 28.477 22.421 28.2174C22.5721 28.1369 22.7054 28.0268 22.813 27.8937C22.9205 27.7606 23.0002 27.6071 23.0472 27.4426C23.0943 27.278 23.1077 27.1056 23.0866 26.9358C23.0656 26.7659 23.0106 26.602 22.9249 26.4539C22.721 26.1954 22.4332 26.0161 22.1113 25.9471C21.7893 25.8781 21.4533 25.9237 21.1614 26.076ZM20.0278 3.40308C20.387 3.51963 20.7267 3.68947 21.0355 3.90693C21.2289 4.00875 21.4476 4.05249 21.6653 4.03289C21.8924 4.03409 22.116 3.97678 22.3146 3.86647C22.5131 3.75616 22.6799 3.59657 22.7989 3.40308C22.8846 3.25495 22.9397 3.09106 22.9607 2.9212C22.9817 2.75134 22.9683 2.57899 22.9213 2.41442C22.8743 2.24985 22.7946 2.09643 22.687 1.96332C22.5794 1.83021 22.4461 1.72012 22.2951 1.63963C21.8882 1.40461 21.4676 1.19429 21.0355 1.00983C20.7345 0.878642 20.394 0.871166 20.0876 0.98902C19.7812 1.10687 19.5334 1.34059 19.398 1.63963C19.2552 1.95806 19.2411 2.31932 19.3585 2.64794C19.4758 2.97655 19.7156 3.24711 20.0278 3.40308Z" fill="white"/>
</svg>
