<svg width="25" height="30" viewBox="0 0 25 30" fill="none" xmlns="http://www.w3.org/2000/svg">
<path d="M20.8333 12L18.875 9.87L9.72222 19.755L6.125 15.885L4.16667 18L9.72222 24L20.8333 12ZM22.2222 3H16.4167C15.8333 1.26 14.3056 0 12.5 0C10.6944 0 9.16667 1.26 8.58333 3H2.77778C2.58333 3 2.40278 3.015 2.22222 3.06C1.68056 3.18 1.19444 3.48 0.819444 3.885C0.569444 4.155 0.361111 4.485 0.222222 4.845C0.0833334 5.19 0 5.58 0 6V27C0 27.405 0.0833334 27.81 0.222222 28.17C0.361111 28.53 0.569444 28.845 0.819444 29.13C1.19444 29.535 1.68056 29.835 2.22222 29.955C2.40278 29.985 2.58333 30 2.77778 30H22.2222C23.75 30 25 28.65 25 27V6C25 4.35 23.75 3 22.2222 3ZM12.5 2.625C13.0694 2.625 13.5417 3.135 13.5417 3.75C13.5417 4.365 13.0694 4.875 12.5 4.875C11.9306 4.875 11.4583 4.365 11.4583 3.75C11.4583 3.135 11.9306 2.625 12.5 2.625ZM22.2222 27H2.77778V6H22.2222V27Z" fill="white"/>
</svg>
