<svg width="390" height="844" viewBox="0 0 390 844" fill="none" xmlns="http://www.w3.org/2000/svg">
<rect width="390" height="844" fill="white"/>
<rect x="91.5" y="207.5" width="207" height="207" rx="98.5" fill="white" stroke="url(#paint0_linear_15_21)" stroke-width="3"/>
<rect x="100" y="216" width="190" height="190" rx="95" fill="url(#paint1_linear_15_21)"/>
<rect x="135" y="389" width="120" height="7" rx="3.5" fill="white"/>
<rect x="113" y="363" width="165" height="7" rx="3.5" fill="white"/>
<rect x="105" y="350" width="180" height="7" rx="3.5" fill="white"/>
<rect x="125" y="376" width="140" height="7" rx="3.5" fill="white"/>
<path d="M73.2 437V465H76.6V437H73.2ZM75.08 440.2H80.8C82.6133 440.2 84.08 440.64 85.2 441.52C86.3467 442.373 86.92 443.667 86.92 445.4C86.92 447.107 86.3467 448.4 85.2 449.28C84.08 450.16 82.6133 450.6 80.8 450.6H75.08V453.8H80.8C82.6133 453.8 84.2267 453.467 85.64 452.8C87.08 452.107 88.2133 451.133 89.04 449.88C89.8933 448.6 90.32 447.107 90.32 445.4C90.32 443.667 89.8933 442.173 89.04 440.92C88.2133 439.667 87.08 438.707 85.64 438.04C84.2267 437.347 82.6133 437 80.8 437H75.08V440.2ZM107.114 437V465H121.514V461.8H110.514V437H107.114ZM141.013 456.6H155.813L154.613 453.4H142.213L141.013 456.6ZM148.333 443.32L153.133 454.6L153.453 455.4L157.533 465H161.333L148.333 435.6L135.333 465H139.133L143.293 455.16L143.613 454.44L148.333 443.32ZM197.939 437V457.84L176.739 435.6V465H180.139V444.16L201.339 466.4V437H197.939ZM240.955 437V457.84L219.755 435.6V465H223.155V444.16L244.355 466.4V437H240.955ZM264.65 465H278.77V461.8H264.65V465ZM264.65 440.2H278.77V437H264.65V440.2ZM264.65 451.4H277.97V448.2H264.65V451.4ZM262.77 437V465H266.17V437H262.77ZM296.763 437V465H300.163V437H296.763ZM305.163 465C307.883 465 310.296 464.413 312.403 463.24C314.509 462.067 316.163 460.44 317.363 458.36C318.563 456.253 319.163 453.8 319.163 451C319.163 448.2 318.563 445.76 317.363 443.68C316.163 441.573 314.509 439.933 312.403 438.76C310.296 437.587 307.883 437 305.163 437H298.643V440.4H305.163C306.736 440.4 308.176 440.653 309.483 441.16C310.789 441.64 311.909 442.347 312.843 443.28C313.776 444.187 314.496 445.293 315.003 446.6C315.509 447.907 315.763 449.373 315.763 451C315.763 452.627 315.509 454.093 315.003 455.4C314.496 456.707 313.776 457.827 312.843 458.76C311.909 459.667 310.789 460.373 309.483 460.88C308.176 461.36 306.736 461.6 305.163 461.6H298.643V465H305.163Z" fill="#F93A3A"/>
<defs>
<linearGradient id="paint0_linear_15_21" x1="195" y1="206" x2="195" y2="416" gradientUnits="userSpaceOnUse">
<stop offset="0.208333" stop-color="#8C8C8C" stop-opacity="0"/>
<stop offset="1" stop-color="#CCCCCC"/>
</linearGradient>
<linearGradient id="paint1_linear_15_21" x1="195" y1="216" x2="195" y2="406" gradientUnits="userSpaceOnUse">
<stop stop-color="#FF8B20"/>
<stop offset="0.447917" stop-color="#F93A3A"/>
</linearGradient>
</defs>
</svg>
